# xmcd
#
# Track frame offsets:
# 150
# 15345
# 29552
# 49035
# 64564
# 75087
# 93925
# 110137
# 123135
# 138090
# 153307
#
# Disc length: 2334 seconds
#
#
# Revision: 0
# Processed by: cddbd v1.5PL3 Copyright (c) Steve Scherf et al.
# Submitted via: FreeRIP 2.53 
#
DISCID=77091c0b
DTITLE=David Lee Murphy - We Can´t All Be Angels
DYEAR=1900
DGENRE=Country
TTITLE0=She Don´t Try ( To Make Me Love Her )
TTITLE1=Just Don´t Wait Around
TTITLE2=We Can´t All Be Angels
TTITLE3=Bringin´ Her Back
TTITLE4=Kentucky Girl
TTITLE5=That´s Behind Me
TTITLE6=I Could Believe Anything
TTITLE7=All Lit Up In Love
TTITLE8=Almost Like Being There
TTITLE9=Velvet Lies
TTITLE10=She´s Not Mine
EXTD=
EXTT0=
EXTT1=
EXTT2=
EXTT3=
EXTT4=
EXTT5=
EXTT6=
EXTT7=
EXTT8=
EXTT9=
EXTT10=
PLAYORDER=
